<?xml version="1.0" standalone="no"?>
<!DOCTYPE svg PUBLIC "-//W3C//DTD SVG 20010904//EN"
 "http://www.w3.org/TR/2001/REC-SVG-20010904/DTD/svg10.dtd">
<svg version="1.0" xmlns="http://www.w3.org/2000/svg"
 width="1210.000000pt" height="1280.000000pt" viewBox="0 0 1210.000000 1280.000000"
 preserveAspectRatio="xMidYMid meet">
<metadata>
Created by potrace 1.15, written by Peter Selinger 2001-2017
</metadata>
<g transform="translate(0.000000,1280.000000) scale(0.100000,-0.100000)"
fill="#000000" stroke="none">
<path d="M6280 12789 c-656 -34 -1324 -168 -1915 -384 -85 -31 -107 -44 -143
-83 -151 -164 -365 -490 -503 -763 -27 -55 -52 -99 -55 -99 -3 0 -99 -18 -212
-41 -465 -91 -968 -212 -1422 -341 -243 -69 -531 -156 -537 -162 -2 -2 1 -14
6 -27 6 -13 53 -139 105 -279 52 -140 124 -335 160 -433 118 -318 196 -528
276 -742 43 -115 104 -280 135 -365 32 -85 61 -159 65 -164 5 -4 -27 -56 -69
-115 -317 -436 -566 -943 -715 -1452 -102 -347 -158 -666 -187 -1054 -12 -162
-6 -1208 8 -1359 l6 -68 -60 7 -61 7 -17 -79 c-21 -90 -21 -188 -2 -253 16
-50 23 -55 92 -67 l50 -8 2 -65 c1 -36 7 -220 13 -410 12 -376 35 -820 51
-970 22 -219 166 -606 320 -864 105 -177 169 -258 318 -406 263 -262 555 -416
936 -496 160 -33 209 -19 324 90 61 58 63 58 23 12 -23 -27 -42 -52 -42 -56 0
-4 15 -10 33 -14 17 -3 52 -10 77 -16 405 -91 979 -154 1855 -201 304 -17
1406 -17 1710 0 615 33 1105 76 1405 122 36 5 106 14 155 18 50 5 97 12 105
15 8 2 40 7 70 10 31 3 62 7 70 10 12 4 64 9 178 18 7 1 -13 29 -45 62 l-58
60 60 -56 c114 -104 163 -118 299 -83 641 162 1099 502 1371 1017 105 200 191
463 225 688 20 135 53 781 65 1260 3 124 8 266 11 316 l6 90 76 24 c91 29 132
62 168 137 25 51 27 59 15 100 -11 44 -68 139 -96 163 -11 9 -30 8 -85 -3
l-71 -15 7 557 c7 585 2 730 -36 1021 -63 478 -186 915 -377 1337 -256 568
-601 1058 -1051 1494 l-171 165 50 180 c45 162 79 288 129 474 10 36 46 166
80 290 34 124 70 254 80 290 9 36 32 119 50 185 18 66 41 149 50 185 14 52
130 470 147 530 4 13 -90 15 -803 15 l-807 0 -164 491 -163 490 -103 12 c-474
55 -1021 74 -1467 51z m-1727 -9978 c146 -74 312 -267 572 -666 138 -212 189
-294 165 -266 -19 22 -27 24 -103 22 -358 -8 -1181 -81 -1477 -132 -36 -6 -87
-12 -114 -14 -45 -3 -50 -6 -73 -44 -13 -23 -26 -41 -29 -41 -3 0 6 19 20 43
13 23 83 146 154 273 164 291 258 444 348 564 205 276 360 351 537 261z m3246
3 c74 -36 217 -180 303 -304 109 -157 191 -295 456 -772 38 -68 35 -78 -4 -13
-20 35 -32 45 -52 46 -15 0 -38 2 -52 3 -14 2 -56 6 -95 10 -38 4 -131 13
-205 21 -418 46 -1002 91 -1238 96 -81 2 -85 1 -108 -27 -30 -35 23 51 181
291 328 502 531 697 709 680 28 -2 75 -17 105 -31z"/>
</g>
</svg>
