<?xml version="1.0" standalone="no"?>
<!DOCTYPE svg PUBLIC "-//W3C//DTD SVG 20010904//EN"
 "http://www.w3.org/TR/2001/REC-SVG-20010904/DTD/svg10.dtd">
<svg version="1.0" xmlns="http://www.w3.org/2000/svg"
 width="1265.000000pt" height="1280.000000pt" viewBox="0 0 1265.000000 1280.000000"
 preserveAspectRatio="xMidYMid meet">
<metadata>
Created by potrace 1.15, written by Peter Selinger 2001-2017
</metadata>
<g transform="translate(0.000000,1280.000000) scale(0.100000,-0.100000)"
fill="#000000" stroke="none">
<path d="M8810 12794 c-30 -2 -127 -8 -215 -14 -384 -26 -887 -90 -1375 -176
-265 -47 -761 -151 -852 -180 -12 -3 -18 0 -18 9 0 27 -79 134 -120 162 -39
27 -40 29 -40 86 l0 59 -160 0 -160 0 0 -59 c0 -50 -3 -61 -22 -74 -38 -24
-79 -69 -110 -118 l-28 -47 -78 24 c-362 113 -812 191 -1372 236 -236 19 -947
16 -1195 -6 -614 -52 -1040 -134 -1256 -242 -60 -30 -119 -82 -119 -104 0 -5
11 -35 25 -66 35 -79 137 -177 240 -231 392 -202 1165 -234 2263 -92 443 57
1089 172 1406 250 43 10 80 19 82 19 2 0 15 -22 28 -48 14 -27 50 -72 80 -100
l56 -51 0 -70 0 -70 -57 -11 c-990 -199 -2229 -913 -2897 -1670 -116 -131
-230 -279 -309 -401 -76 -116 -173 -302 -160 -306 5 -2 18 -10 28 -17 16 -11
10 -21 -62 -112 -635 -792 -1009 -1748 -1084 -2774 -24 -335 10 -2181 56
-3060 24 -435 33 -496 112 -730 214 -640 561 -1078 1042 -1320 144 -72 262
-116 421 -156 194 -49 245 -53 312 -22 29 14 83 51 118 83 l65 59 -52 -55 -52
-54 37 -1 c20 0 62 -6 92 -13 158 -37 367 -73 583 -101 196 -25 368 -43 742
-75 823 -71 2217 -71 3040 0 446 39 658 61 890 95 39 6 97 13 130 16 33 2 67
7 75 10 15 6 125 20 235 30 33 3 69 7 80 9 11 1 27 3 35 4 9 1 -5 21 -35 53
l-50 52 55 -49 c30 -26 54 -52 52 -57 -1 -5 2 -7 7 -3 6 3 28 -3 50 -15 52
-26 88 -25 202 4 783 203 1292 646 1544 1341 43 119 99 338 114 450 59 434
127 3059 91 3526 -67 867 -337 1657 -815 2384 -115 174 -271 381 -388 515 -58
65 -64 77 -50 87 14 11 10 21 -32 95 -396 688 -1248 1323 -2400 1788 -486 196
-1086 372 -1383 406 l-62 7 0 67 c0 59 3 70 23 82 43 29 98 93 124 146 14 28
27 52 29 52 2 0 57 -16 121 -35 755 -229 1722 -312 2688 -230 626 53 1118 167
1243 287 40 40 40 64 0 140 -100 188 -374 310 -818 363 -128 16 -652 28 -790
19z m-4072 -9845 c98 -43 224 -161 363 -339 65 -84 330 -474 423 -625 l19 -30
-21 18 c-19 18 -32 18 -239 8 -528 -28 -1011 -73 -1410 -133 -43 -6 -97 -12
-120 -12 -40 -1 -43 -3 -83 -68 -23 -38 -44 -68 -47 -68 -3 0 2 11 10 24 9 13
85 145 168 293 278 491 391 664 524 798 152 155 277 195 413 134z m3404 -2
c52 -22 149 -100 206 -166 120 -137 257 -353 482 -756 123 -220 142 -256 118
-222 -7 10 -17 25 -23 32 -6 8 -39 16 -80 20 -145 12 -178 16 -312 30 -565 58
-768 75 -1163 95 -118 7 -218 12 -221 13 -4 1 -16 -9 -28 -23 l-22 -25 18 30
c59 100 339 518 412 615 114 152 257 295 339 338 96 51 183 57 274 19z m-4662
-1461 c0 -2 -8 -10 -17 -17 -16 -13 -17 -12 -4 4 13 16 21 21 21 13z"/>
</g>
</svg>
